<svg width="72" height="73" viewBox="0 0 72 73" fill="none" xmlns="http://www.w3.org/2000/svg">
<rect y="0.259766" width="72" height="72" rx="36" fill="url(#paint0_linear_88648_1201)"/>
<path d="M35.9607 20.7719C35.7967 20.8305 31.4524 22.4113 26.3 24.2849C21.1477 26.1468 16.7096 27.7744 16.4403 27.9032C15.5738 28.3131 15.6206 28.8986 16.5574 29.3318C16.897 29.4841 18.0329 29.9173 19.0985 30.292C20.1641 30.6668 21.054 30.9946 21.0774 31.0063C21.1008 31.0298 20.9018 31.2874 20.6442 31.6036C19.6722 32.7745 19.1687 34.2617 19.0282 36.4046C18.9462 37.681 18.9462 37.681 18.5715 37.9269C17.8338 38.4187 17.4825 39.6951 17.8572 40.5733C17.9392 40.7841 18.1851 41.112 18.3959 41.3227C18.7589 41.674 18.7706 41.7326 18.7003 42.2712C18.4076 44.5078 17.0961 47.5173 15.4801 49.6602C15.2108 50.0115 15 50.3393 15 50.3979C15 50.5735 16.452 51.5689 17.2015 51.9202L17.9509 52.2598L18.4427 51.967C19.1219 51.5689 20.0001 50.597 20.328 49.871C20.972 48.4658 21.0189 48.1028 21.0306 44.6249C21.0306 41.6389 21.0423 41.3696 21.2414 41.1471C21.4873 40.8778 21.78 40.14 21.7917 39.777C21.7917 39.3086 21.5341 38.6529 21.1828 38.243C20.8198 37.8332 20.8198 37.8332 20.8901 36.8144C21.0189 34.9292 21.6044 33.3835 22.588 32.353C23.1149 31.7909 23.3491 31.6738 29.6959 28.9454C36.6281 25.9594 36.675 25.9477 37.0731 26.5215C37.2722 26.8025 37.3073 27.4465 37.1317 27.7627C37.0614 27.9032 34.9419 28.8752 31.4875 30.3506C28.4429 31.6504 25.937 32.7277 25.9253 32.7394C25.9136 32.7511 28.2673 33.6176 31.1713 34.6715C35.1058 36.1001 36.5345 36.5685 36.8155 36.5217C37.1668 36.4749 56.1016 29.5426 56.5818 29.2967C56.8862 29.1328 57.0619 28.7463 56.9799 28.4653C56.933 28.3248 56.652 28.1023 56.3007 27.9501C55.4693 27.5754 36.5579 20.6314 36.3822 20.6431C36.312 20.6431 36.1246 20.7017 35.9607 20.7719Z" fill="#FDFCFC"/>
<path d="M43.3367 36.8147C39.894 38.0911 36.9549 39.1684 36.8143 39.2035C36.6504 39.2503 34.4607 38.5126 30.2451 36.9786C26.7673 35.714 23.8983 34.6835 23.8515 34.6835C23.8164 34.6835 23.7812 35.3744 23.7812 36.2175C23.7812 37.7046 23.793 37.7515 24.1208 38.2316C24.6127 38.9693 24.7532 39.508 24.6946 40.5267C24.6595 41.2176 24.5658 41.5572 24.3199 42.0256C24.0037 42.5994 24.0037 42.6345 24.1794 42.9858C24.6595 43.9109 28.3949 45.5268 31.4512 46.1475C33.7815 46.6041 36.0532 46.7329 38.3717 46.4988C43.1377 46.0421 48.8521 43.8406 49.5313 42.2012C49.6249 41.9905 49.6484 40.7375 49.6366 38.1965L49.6015 34.5078L43.3367 36.8147Z" fill="#FDFCFC"/>
<defs>
<linearGradient id="paint0_linear_88648_1201" x1="8.21394" y1="-23.414" x2="232.676" y2="170.852" gradientUnits="userSpaceOnUse">
<stop stop-color="#A854E9"/>
<stop offset="1" stop-color="#4F91FC"/>
</linearGradient>
</defs>
</svg>
